<?xml version="1.0" encoding="UTF-8"?>
<svg xmlns="http://www.w3.org/2000/svg" xmlns:xlink="http://www.w3.org/1999/xlink"
     width="180" height="180" viewBox="0 0 90 90">
<defs>
</defs>
<rect x="0" y="0" width="90" height="90" fill="white" />
<rect x="2" y="2" width="20" height="20" fill="black" stroke="none" />
<rect x="8.666666666666668" y="8.666666666666668" width="6.666666666666667" height="6.666666666666667" fill="gray" stroke="none" />
<rect x="15.333333333333332" y="8.666666666666668" width="6.666666666666667" height="6.666666666666667" fill="gray" stroke="none" />
<rect x="2" y="8.666666666666666" width="6.666666666666667" height="6.666666666666667" fill="gray" stroke="none" />
<text x="17.666666666666668" y="21.0" font-size="4" fill="white" stroke="white" stroke-width="0.25">0</text>
<rect x="2" y="24" width="20" height="20" fill="black" stroke="none" />
<rect x="8.666666666666668" y="30.666666666666668" width="6.666666666666667" height="6.666666666666667" fill="gray" stroke="none" />
<rect x="8.666666666666668" y="24" width="6.666666666666667" height="6.666666666666667" fill="gray" stroke="none" />
<rect x="15.333333333333332" y="30.666666666666668" width="6.666666666666667" height="6.666666666666667" fill="gray" stroke="none" />
<rect x="2" y="30.666666666666664" width="6.666666666666667" height="6.666666666666667" fill="gray" stroke="none" />
<text x="17.666666666666668" y="43.0" font-size="4" fill="white" stroke="white" stroke-width="0.25">4</text>
<rect x="2" y="46" width="20" height="20" fill="black" stroke="none" />
<rect x="8.666666666666668" y="52.666666666666664" width="6.666666666666667" height="6.666666666666667" fill="gray" stroke="none" />
<rect x="8.666666666666668" y="46" width="6.666666666666667" height="6.666666666666667" fill="gray" stroke="none" />
<rect x="15.333333333333332" y="52.666666666666664" width="6.666666666666667" height="6.666666666666667" fill="gray" stroke="none" />
<text x="17.666666666666668" y="65.0" font-size="4" fill="white" stroke="white" stroke-width="0.25">8</text>
<rect x="2" y="68" width="20" height="20" fill="black" stroke="none" />
<rect x="8.666666666666668" y="74.66666666666667" width="6.666666666666667" height="6.666666666666667" fill="gray" stroke="none" />
<rect x="8.666666666666668" y="68" width="6.666666666666667" height="6.666666666666667" fill="gray" stroke="none" />
<rect x="8.666666666666666" y="81.33333333333333" width="6.666666666666667" height="6.666666666666667" fill="gray" stroke="none" />
<text x="17.666666666666668" y="87.0" font-size="4" fill="white" stroke="white" stroke-width="0.25">12</text>
<circle cx="12.0" cy="12.0" r="2.75" fill="blue" />
<rect x="74.66666666666667" y="81.33333333333333" width="6.666666666666667" height="6.666666666666667" fill="yellow" stroke="none" />
<rect x="24" y="2" width="20" height="20" fill="black" stroke="none" />
<rect x="30.666666666666668" y="8.666666666666668" width="6.666666666666667" height="6.666666666666667" fill="gray" stroke="none" />
<rect x="30.666666666666664" y="15.333333333333332" width="6.666666666666667" height="6.666666666666667" fill="gray" stroke="none" />
<rect x="24" y="8.666666666666666" width="6.666666666666667" height="6.666666666666667" fill="gray" stroke="none" />
<text x="39.66666666666667" y="21.0" font-size="4" fill="white" stroke="white" stroke-width="0.25">1</text>
<rect x="24" y="24" width="20" height="20" fill="black" stroke="none" />
<rect x="30.666666666666668" y="30.666666666666668" width="6.666666666666667" height="6.666666666666667" fill="gray" stroke="none" />
<rect x="30.666666666666668" y="24" width="6.666666666666667" height="6.666666666666667" fill="gray" stroke="none" />
<rect x="37.33333333333333" y="30.666666666666668" width="6.666666666666667" height="6.666666666666667" fill="gray" stroke="none" />
<text x="39.66666666666667" y="43.0" font-size="4" fill="white" stroke="white" stroke-width="0.25">5</text>
<rect x="24" y="46" width="20" height="20" fill="black" stroke="none" />
<rect x="30.666666666666668" y="52.666666666666664" width="6.666666666666667" height="6.666666666666667" fill="gray" stroke="none" />
<rect x="30.666666666666668" y="46" width="6.666666666666667" height="6.666666666666667" fill="gray" stroke="none" />
<rect x="37.33333333333333" y="52.666666666666664" width="6.666666666666667" height="6.666666666666667" fill="gray" stroke="none" />
<text x="39.66666666666667" y="65.0" font-size="4" fill="white" stroke="white" stroke-width="0.25">9</text>
<rect x="24" y="68" width="20" height="20" fill="black" stroke="none" />
<rect x="30.666666666666668" y="74.66666666666667" width="6.666666666666667" height="6.666666666666667" fill="gray" stroke="none" />
<rect x="30.666666666666668" y="68" width="6.666666666666667" height="6.666666666666667" fill="gray" stroke="none" />
<rect x="30.666666666666664" y="81.33333333333333" width="6.666666666666667" height="6.666666666666667" fill="gray" stroke="none" />
<rect x="24" y="74.66666666666667" width="6.666666666666667" height="6.666666666666667" fill="gray" stroke="none" />
<text x="39.66666666666667" y="87.0" font-size="4" fill="white" stroke="white" stroke-width="0.25">13</text>
<circle cx="12.0" cy="12.0" r="2.75" fill="blue" />
<rect x="74.66666666666667" y="81.33333333333333" width="6.666666666666667" height="6.666666666666667" fill="yellow" stroke="none" />
<rect x="46" y="2" width="20" height="20" fill="black" stroke="none" />
<rect x="52.666666666666664" y="8.666666666666668" width="6.666666666666667" height="6.666666666666667" fill="gray" stroke="none" />
<rect x="59.33333333333333" y="8.666666666666668" width="6.666666666666667" height="6.666666666666667" fill="gray" stroke="none" />
<rect x="52.666666666666664" y="15.333333333333332" width="6.666666666666667" height="6.666666666666667" fill="gray" stroke="none" />
<text x="61.66666666666667" y="21.0" font-size="4" fill="white" stroke="white" stroke-width="0.25">2</text>
<rect x="46" y="24" width="20" height="20" fill="black" stroke="none" />
<rect x="52.666666666666664" y="30.666666666666668" width="6.666666666666667" height="6.666666666666667" fill="gray" stroke="none" />
<rect x="52.666666666666664" y="37.33333333333333" width="6.666666666666667" height="6.666666666666667" fill="gray" stroke="none" />
<rect x="46" y="30.666666666666664" width="6.666666666666667" height="6.666666666666667" fill="gray" stroke="none" />
<text x="61.66666666666667" y="43.0" font-size="4" fill="white" stroke="white" stroke-width="0.25">6</text>
<rect x="46" y="46" width="20" height="20" fill="black" stroke="none" />
<rect x="52.666666666666664" y="52.666666666666664" width="6.666666666666667" height="6.666666666666667" fill="gray" stroke="none" />
<rect x="52.666666666666664" y="46" width="6.666666666666667" height="6.666666666666667" fill="gray" stroke="none" />
<rect x="59.33333333333333" y="52.666666666666664" width="6.666666666666667" height="6.666666666666667" fill="gray" stroke="none" />
<rect x="52.666666666666664" y="59.33333333333333" width="6.666666666666667" height="6.666666666666667" fill="gray" stroke="none" />
<text x="61.66666666666667" y="65.0" font-size="4" fill="white" stroke="white" stroke-width="0.25">10</text>
<rect x="46" y="68" width="20" height="20" fill="black" stroke="none" />
<rect x="52.666666666666664" y="74.66666666666667" width="6.666666666666667" height="6.666666666666667" fill="gray" stroke="none" />
<rect x="52.666666666666664" y="68" width="6.666666666666667" height="6.666666666666667" fill="gray" stroke="none" />
<rect x="59.33333333333333" y="74.66666666666667" width="6.666666666666667" height="6.666666666666667" fill="gray" stroke="none" />
<rect x="52.666666666666664" y="81.33333333333333" width="6.666666666666667" height="6.666666666666667" fill="gray" stroke="none" />
<rect x="46" y="74.66666666666667" width="6.666666666666667" height="6.666666666666667" fill="gray" stroke="none" />
<text x="61.66666666666667" y="87.0" font-size="4" fill="white" stroke="white" stroke-width="0.25">14</text>
<circle cx="12.0" cy="12.0" r="2.75" fill="blue" />
<rect x="74.66666666666667" y="81.33333333333333" width="6.666666666666667" height="6.666666666666667" fill="yellow" stroke="none" />
<rect x="68" y="2" width="20" height="20" fill="black" stroke="none" />
<rect x="74.66666666666667" y="8.666666666666668" width="6.666666666666667" height="6.666666666666667" fill="gray" stroke="none" />
<rect x="74.66666666666667" y="2" width="6.666666666666667" height="6.666666666666667" fill="gray" stroke="none" />
<rect x="81.33333333333333" y="8.666666666666668" width="6.666666666666667" height="6.666666666666667" fill="gray" stroke="none" />
<rect x="68" y="8.666666666666666" width="6.666666666666667" height="6.666666666666667" fill="gray" stroke="none" />
<text x="83.66666666666667" y="21.0" font-size="4" fill="white" stroke="white" stroke-width="0.25">3</text>
<rect x="68" y="24" width="20" height="20" fill="black" stroke="none" />
<rect x="74.66666666666667" y="30.666666666666668" width="6.666666666666667" height="6.666666666666667" fill="gray" stroke="none" />
<rect x="74.66666666666667" y="24" width="6.666666666666667" height="6.666666666666667" fill="gray" stroke="none" />
<rect x="74.66666666666667" y="37.33333333333333" width="6.666666666666667" height="6.666666666666667" fill="gray" stroke="none" />
<text x="83.66666666666667" y="43.0" font-size="4" fill="white" stroke="white" stroke-width="0.25">7</text>
<rect x="68" y="46" width="20" height="20" fill="black" stroke="none" />
<rect x="74.66666666666667" y="52.666666666666664" width="6.666666666666667" height="6.666666666666667" fill="gray" stroke="none" />
<rect x="74.66666666666667" y="59.33333333333333" width="6.666666666666667" height="6.666666666666667" fill="gray" stroke="none" />
<rect x="68" y="52.666666666666664" width="6.666666666666667" height="6.666666666666667" fill="gray" stroke="none" />
<text x="83.66666666666667" y="65.0" font-size="4" fill="white" stroke="white" stroke-width="0.25">11</text>
<rect x="68" y="68" width="20" height="20" fill="black" stroke="none" />
<rect x="74.66666666666667" y="74.66666666666667" width="6.666666666666667" height="6.666666666666667" fill="gray" stroke="none" />
<rect x="74.66666666666667" y="68" width="6.666666666666667" height="6.666666666666667" fill="gray" stroke="none" />
<rect x="81.33333333333333" y="74.66666666666667" width="6.666666666666667" height="6.666666666666667" fill="gray" stroke="none" />
<rect x="74.66666666666667" y="81.33333333333333" width="6.666666666666667" height="6.666666666666667" fill="gray" stroke="none" />
<text x="83.66666666666667" y="87.0" font-size="4" fill="white" stroke="white" stroke-width="0.25">15</text>
<circle cx="12.0" cy="12.0" r="2.75" fill="blue" />
<rect x="74.66666666666667" y="81.33333333333333" width="6.666666666666667" height="6.666666666666667" fill="yellow" stroke="none" />
<path d="M12.0,12.0 L34.0,12.0" stroke="blue" />
<path d="M34.0,12.0 L34.0,34.0" stroke="blue" />
<path d="M34.0,34.0 L56.0,34.0" stroke="blue" />
<path d="M56.0,34.0 L56.0,56.0" stroke="blue" />
<path d="M56.0,56.0 L78.0,56.0" stroke="blue" />
<path d="M78.0,56.0 L78.0,78.0" stroke="blue" />
<path d="M12.0,12.0 L34.0,12.0" stroke="red" />
<path d="M34.0,12.0 L34.0,34.0" stroke="red" />
<path d="M34.0,34.0 L56.0,34.0" stroke="red" />
<path d="M56.0,34.0 L56.0,56.0" stroke="red" />
<path d="M56.0,56.0 L78.0,56.0" stroke="red" />
<path d="M78.0,56.0 L78.0,78.0" stroke="red" />
</svg>